<?xml version="1.0" encoding="UTF-8" standalone="no"?>
<!DOCTYPE svg PUBLIC "-//W3C//DTD SVG 1.1//EN"
 "http://www.w3.org/Graphics/SVG/1.1/DTD/svg11.dtd">
<!-- Generated by graphviz version 2.43.0 (0)
 -->
<!-- Title: snakemake_dag Pages: 1 -->
<svg width="498pt" height="548pt"
 viewBox="0.00 0.00 498.00 548.00" xmlns="http://www.w3.org/2000/svg" xmlns:xlink="http://www.w3.org/1999/xlink">
<g id="graph0" class="graph" transform="scale(1 1) rotate(0) translate(4 544)">
<title>snakemake_dag</title>
<polygon fill="white" stroke="transparent" points="-4,4 -4,-544 494,-544 494,4 -4,4"/>
<!-- 0 -->
<g id="node1" class="node">
<title>0</title>
<path fill="none" stroke="#d85656" stroke-width="2" stroke-dasharray="5,2" d="M235.5,-36C235.5,-36 205.5,-36 205.5,-36 199.5,-36 193.5,-30 193.5,-24 193.5,-24 193.5,-12 193.5,-12 193.5,-6 199.5,0 205.5,0 205.5,0 235.5,0 235.5,0 241.5,0 247.5,-6 247.5,-12 247.5,-12 247.5,-24 247.5,-24 247.5,-30 241.5,-36 235.5,-36"/>
<text text-anchor="middle" x="220.5" y="-15.5" font-family="sans" font-size="10.00">all</text>
</g>
<!-- 1 -->
<g id="node2" class="node">
<title>1</title>
<path fill="none" stroke="#d8b456" stroke-width="2" stroke-dasharray="5,2" d="M248,-180C248,-180 193,-180 193,-180 187,-180 181,-174 181,-168 181,-168 181,-156 181,-156 181,-150 187,-144 193,-144 193,-144 248,-144 248,-144 254,-144 260,-150 260,-156 260,-156 260,-168 260,-168 260,-174 254,-180 248,-180"/>
<text text-anchor="middle" x="220.5" y="-159.5" font-family="sans" font-size="10.00">call_variants</text>
</g>
<!-- 1&#45;&gt;0 -->
<g id="edge1" class="edge">
<title>1&#45;&gt;0</title>
<path fill="none" stroke="grey" stroke-width="2" d="M214.26,-143.59C210.93,-133.37 207.18,-120.12 205.5,-108 203.3,-92.15 203.3,-87.85 205.5,-72 206.68,-63.48 208.89,-54.39 211.25,-46.2"/>
<polygon fill="grey" stroke="grey" stroke-width="2" points="214.67,-46.99 214.26,-36.41 207.98,-44.94 214.67,-46.99"/>
</g>
<!-- 14 -->
<g id="node15" class="node">
<title>14</title>
<path fill="none" stroke="#9fd856" stroke-width="2" stroke-dasharray="5,2" d="M282.5,-108C282.5,-108 226.5,-108 226.5,-108 220.5,-108 214.5,-102 214.5,-96 214.5,-96 214.5,-84 214.5,-84 214.5,-78 220.5,-72 226.5,-72 226.5,-72 282.5,-72 282.5,-72 288.5,-72 294.5,-78 294.5,-84 294.5,-84 294.5,-96 294.5,-96 294.5,-102 288.5,-108 282.5,-108"/>
<text text-anchor="middle" x="254.5" y="-87.5" font-family="sans" font-size="10.00">plot_variants</text>
</g>
<!-- 1&#45;&gt;14 -->
<g id="edge19" class="edge">
<title>1&#45;&gt;14</title>
<path fill="none" stroke="grey" stroke-width="2" d="M228.9,-143.7C232.77,-135.73 237.45,-126.1 241.74,-117.26"/>
<polygon fill="grey" stroke="grey" stroke-width="2" points="244.97,-118.63 246.19,-108.1 238.67,-115.57 244.97,-118.63"/>
</g>
<!-- 2 -->
<g id="node3" class="node">
<title>2</title>
<path fill="none" stroke="#56d8c9" stroke-width="2" stroke-dasharray="5,2" d="M195,-540C195,-540 112,-540 112,-540 106,-540 100,-534 100,-528 100,-528 100,-516 100,-516 100,-510 106,-504 112,-504 112,-504 195,-504 195,-504 201,-504 207,-510 207,-516 207,-516 207,-528 207,-528 207,-534 201,-540 195,-540"/>
<text text-anchor="middle" x="153.5" y="-519.5" font-family="sans" font-size="10.00">demultiplex_sabre</text>
</g>
<!-- 5 -->
<g id="node6" class="node">
<title>5</title>
<path fill="none" stroke="#56d89a" stroke-width="2" stroke-dasharray="5,2" d="M89,-468C89,-468 12,-468 12,-468 6,-468 0,-462 0,-456 0,-456 0,-444 0,-444 0,-438 6,-432 12,-432 12,-432 89,-432 89,-432 95,-432 101,-438 101,-444 101,-444 101,-456 101,-456 101,-462 95,-468 89,-468"/>
<text text-anchor="middle" x="50.5" y="-453" font-family="sans" font-size="10.00">trim_galore</text>
<text text-anchor="middle" x="50.5" y="-442" font-family="sans" font-size="10.00">sample: Sample1</text>
</g>
<!-- 2&#45;&gt;5 -->
<g id="edge12" class="edge">
<title>2&#45;&gt;5</title>
<path fill="none" stroke="grey" stroke-width="2" d="M128.3,-503.88C115.09,-494.89 98.71,-483.76 84.39,-474.03"/>
<polygon fill="grey" stroke="grey" stroke-width="2" points="86.03,-470.92 75.79,-468.19 82.1,-476.71 86.03,-470.92"/>
</g>
<!-- 9 -->
<g id="node10" class="node">
<title>9</title>
<path fill="none" stroke="#56d89a" stroke-width="2" stroke-dasharray="5,2" d="M295,-468C295,-468 218,-468 218,-468 212,-468 206,-462 206,-456 206,-456 206,-444 206,-444 206,-438 212,-432 218,-432 218,-432 295,-432 295,-432 301,-432 307,-438 307,-444 307,-444 307,-456 307,-456 307,-462 301,-468 295,-468"/>
<text text-anchor="middle" x="256.5" y="-453" font-family="sans" font-size="10.00">trim_galore</text>
<text text-anchor="middle" x="256.5" y="-442" font-family="sans" font-size="10.00">sample: Sample4</text>
</g>
<!-- 2&#45;&gt;9 -->
<g id="edge16" class="edge">
<title>2&#45;&gt;9</title>
<path fill="none" stroke="grey" stroke-width="2" d="M178.7,-503.88C191.91,-494.89 208.29,-483.76 222.61,-474.03"/>
<polygon fill="grey" stroke="grey" stroke-width="2" points="224.9,-476.71 231.21,-468.19 220.97,-470.92 224.9,-476.71"/>
</g>
<!-- 3 -->
<g id="node4" class="node">
<title>3</title>
<path fill="none" stroke="#56b1d8" stroke-width="2" stroke-dasharray="5,2" d="M132.5,-324C132.5,-324 56.5,-324 56.5,-324 50.5,-324 44.5,-318 44.5,-312 44.5,-312 44.5,-300 44.5,-300 44.5,-294 50.5,-288 56.5,-288 56.5,-288 132.5,-288 132.5,-288 138.5,-288 144.5,-294 144.5,-300 144.5,-300 144.5,-312 144.5,-312 144.5,-318 138.5,-324 132.5,-324"/>
<text text-anchor="middle" x="94.5" y="-303.5" font-family="sans" font-size="10.00">add_read_groups</text>
</g>
<!-- 3&#45;&gt;1 -->
<g id="edge3" class="edge">
<title>3&#45;&gt;1</title>
<path fill="none" stroke="grey" stroke-width="2" d="M84.75,-287.66C75.4,-268.46 64.69,-237.38 79.5,-216 99.92,-186.51 138.93,-173.41 170.75,-167.6"/>
<polygon fill="grey" stroke="grey" stroke-width="2" points="171.5,-171.02 180.8,-165.95 170.37,-164.11 171.5,-171.02"/>
</g>
<!-- 10 -->
<g id="node11" class="node">
<title>10</title>
<path fill="none" stroke="#ced856" stroke-width="2" stroke-dasharray="5,2" d="M148,-252C148,-252 101,-252 101,-252 95,-252 89,-246 89,-240 89,-240 89,-228 89,-228 89,-222 95,-216 101,-216 101,-216 148,-216 148,-216 154,-216 160,-222 160,-228 160,-228 160,-240 160,-240 160,-246 154,-252 148,-252"/>
<text text-anchor="middle" x="124.5" y="-231.5" font-family="sans" font-size="10.00">index_bam</text>
</g>
<!-- 3&#45;&gt;10 -->
<g id="edge17" class="edge">
<title>3&#45;&gt;10</title>
<path fill="none" stroke="grey" stroke-width="2" d="M101.92,-287.7C105.29,-279.81 109.37,-270.3 113.12,-261.55"/>
<polygon fill="grey" stroke="grey" stroke-width="2" points="116.45,-262.67 117.17,-252.1 110.01,-259.92 116.45,-262.67"/>
</g>
<!-- 4 -->
<g id="node5" class="node">
<title>4</title>
<path fill="none" stroke="#56d86b" stroke-width="2" stroke-dasharray="5,2" d="M116.5,-396C116.5,-396 72.5,-396 72.5,-396 66.5,-396 60.5,-390 60.5,-384 60.5,-384 60.5,-372 60.5,-372 60.5,-366 66.5,-360 72.5,-360 72.5,-360 116.5,-360 116.5,-360 122.5,-360 128.5,-366 128.5,-372 128.5,-372 128.5,-384 128.5,-384 128.5,-390 122.5,-396 116.5,-396"/>
<text text-anchor="middle" x="94.5" y="-375.5" font-family="sans" font-size="10.00">bwa_mem</text>
</g>
<!-- 4&#45;&gt;3 -->
<g id="edge9" class="edge">
<title>4&#45;&gt;3</title>
<path fill="none" stroke="grey" stroke-width="2" d="M94.5,-359.7C94.5,-351.98 94.5,-342.71 94.5,-334.11"/>
<polygon fill="grey" stroke="grey" stroke-width="2" points="98,-334.1 94.5,-324.1 91,-334.1 98,-334.1"/>
</g>
<!-- 5&#45;&gt;4 -->
<g id="edge10" class="edge">
<title>5&#45;&gt;4</title>
<path fill="none" stroke="grey" stroke-width="2" d="M61.38,-431.7C66.49,-423.56 72.7,-413.69 78.34,-404.7"/>
<polygon fill="grey" stroke="grey" stroke-width="2" points="81.39,-406.43 83.75,-396.1 75.46,-402.71 81.39,-406.43"/>
</g>
<!-- 6 -->
<g id="node7" class="node">
<title>6</title>
<path fill="none" stroke="#d88556" stroke-width="2" stroke-dasharray="5,2" d="M176,-468C176,-468 131,-468 131,-468 125,-468 119,-462 119,-456 119,-456 119,-444 119,-444 119,-438 125,-432 131,-432 131,-432 176,-432 176,-432 182,-432 188,-438 188,-444 188,-444 188,-456 188,-456 188,-462 182,-468 176,-468"/>
<text text-anchor="middle" x="153.5" y="-447.5" font-family="sans" font-size="10.00">bwa_index</text>
</g>
<!-- 6&#45;&gt;4 -->
<g id="edge11" class="edge">
<title>6&#45;&gt;4</title>
<path fill="none" stroke="grey" stroke-width="2" d="M138.92,-431.7C131.84,-423.3 123.22,-413.07 115.45,-403.86"/>
<polygon fill="grey" stroke="grey" stroke-width="2" points="118.04,-401.49 108.92,-396.1 112.69,-406.01 118.04,-401.49"/>
</g>
<!-- 8 -->
<g id="node9" class="node">
<title>8</title>
<path fill="none" stroke="#56d86b" stroke-width="2" stroke-dasharray="5,2" d="M239.5,-396C239.5,-396 195.5,-396 195.5,-396 189.5,-396 183.5,-390 183.5,-384 183.5,-384 183.5,-372 183.5,-372 183.5,-366 189.5,-360 195.5,-360 195.5,-360 239.5,-360 239.5,-360 245.5,-360 251.5,-366 251.5,-372 251.5,-372 251.5,-384 251.5,-384 251.5,-390 245.5,-396 239.5,-396"/>
<text text-anchor="middle" x="217.5" y="-375.5" font-family="sans" font-size="10.00">bwa_mem</text>
</g>
<!-- 6&#45;&gt;8 -->
<g id="edge15" class="edge">
<title>6&#45;&gt;8</title>
<path fill="none" stroke="grey" stroke-width="2" d="M169.32,-431.7C177.07,-423.22 186.54,-412.86 195.02,-403.58"/>
<polygon fill="grey" stroke="grey" stroke-width="2" points="197.7,-405.85 201.86,-396.1 192.53,-401.12 197.7,-405.85"/>
</g>
<!-- 7 -->
<g id="node8" class="node">
<title>7</title>
<path fill="none" stroke="#56b1d8" stroke-width="2" stroke-dasharray="5,2" d="M255.5,-324C255.5,-324 179.5,-324 179.5,-324 173.5,-324 167.5,-318 167.5,-312 167.5,-312 167.5,-300 167.5,-300 167.5,-294 173.5,-288 179.5,-288 179.5,-288 255.5,-288 255.5,-288 261.5,-288 267.5,-294 267.5,-300 267.5,-300 267.5,-312 267.5,-312 267.5,-318 261.5,-324 255.5,-324"/>
<text text-anchor="middle" x="217.5" y="-303.5" font-family="sans" font-size="10.00">add_read_groups</text>
</g>
<!-- 7&#45;&gt;1 -->
<g id="edge4" class="edge">
<title>7&#45;&gt;1</title>
<path fill="none" stroke="grey" stroke-width="2" d="M213.22,-287.93C209.29,-270 204.48,-241.01 207.5,-216 208.52,-207.53 210.43,-198.47 212.48,-190.28"/>
<polygon fill="grey" stroke="grey" stroke-width="2" points="215.9,-191.03 215.09,-180.47 209.14,-189.23 215.9,-191.03"/>
</g>
<!-- 11 -->
<g id="node12" class="node">
<title>11</title>
<path fill="none" stroke="#ced856" stroke-width="2" stroke-dasharray="5,2" d="M276,-252C276,-252 229,-252 229,-252 223,-252 217,-246 217,-240 217,-240 217,-228 217,-228 217,-222 223,-216 229,-216 229,-216 276,-216 276,-216 282,-216 288,-222 288,-228 288,-228 288,-240 288,-240 288,-246 282,-252 276,-252"/>
<text text-anchor="middle" x="252.5" y="-231.5" font-family="sans" font-size="10.00">index_bam</text>
</g>
<!-- 7&#45;&gt;11 -->
<g id="edge18" class="edge">
<title>7&#45;&gt;11</title>
<path fill="none" stroke="grey" stroke-width="2" d="M226.15,-287.7C230.14,-279.73 234.95,-270.1 239.37,-261.26"/>
<polygon fill="grey" stroke="grey" stroke-width="2" points="242.61,-262.61 243.95,-252.1 236.35,-259.48 242.61,-262.61"/>
</g>
<!-- 8&#45;&gt;7 -->
<g id="edge13" class="edge">
<title>8&#45;&gt;7</title>
<path fill="none" stroke="grey" stroke-width="2" d="M217.5,-359.7C217.5,-351.98 217.5,-342.71 217.5,-334.11"/>
<polygon fill="grey" stroke="grey" stroke-width="2" points="221,-334.1 217.5,-324.1 214,-334.1 221,-334.1"/>
</g>
<!-- 9&#45;&gt;8 -->
<g id="edge14" class="edge">
<title>9&#45;&gt;8</title>
<path fill="none" stroke="grey" stroke-width="2" d="M246.86,-431.7C242.37,-423.64 236.94,-413.89 231.98,-404.98"/>
<polygon fill="grey" stroke="grey" stroke-width="2" points="234.95,-403.14 227.03,-396.1 228.84,-406.54 234.95,-403.14"/>
</g>
<!-- 10&#45;&gt;1 -->
<g id="edge5" class="edge">
<title>10&#45;&gt;1</title>
<path fill="none" stroke="grey" stroke-width="2" d="M148.23,-215.7C160.44,-206.8 175.49,-195.82 188.68,-186.2"/>
<polygon fill="grey" stroke="grey" stroke-width="2" points="191.02,-188.82 197.04,-180.1 186.9,-183.17 191.02,-188.82"/>
</g>
<!-- 11&#45;&gt;1 -->
<g id="edge6" class="edge">
<title>11&#45;&gt;1</title>
<path fill="none" stroke="grey" stroke-width="2" d="M244.59,-215.7C240.95,-207.73 236.55,-198.1 232.51,-189.26"/>
<polygon fill="grey" stroke="grey" stroke-width="2" points="235.66,-187.74 228.32,-180.1 229.29,-190.65 235.66,-187.74"/>
</g>
<!-- 12 -->
<g id="node13" class="node">
<title>12</title>
<path fill="none" stroke="#70d856" stroke-width="2" stroke-dasharray="5,2" d="M389,-252C389,-252 318,-252 318,-252 312,-252 306,-246 306,-240 306,-240 306,-228 306,-228 306,-222 312,-216 318,-216 318,-216 389,-216 389,-216 395,-216 401,-222 401,-228 401,-228 401,-240 401,-240 401,-246 395,-252 389,-252"/>
<text text-anchor="middle" x="353.5" y="-231.5" font-family="sans" font-size="10.00">index_reference</text>
</g>
<!-- 12&#45;&gt;1 -->
<g id="edge7" class="edge">
<title>12&#45;&gt;1</title>
<path fill="none" stroke="grey" stroke-width="2" d="M320.96,-215.88C303.25,-206.55 281.15,-194.92 262.18,-184.94"/>
<polygon fill="grey" stroke="grey" stroke-width="2" points="263.64,-181.75 253.16,-180.19 260.38,-187.94 263.64,-181.75"/>
</g>
<!-- 13 -->
<g id="node14" class="node">
<title>13</title>
<path fill="none" stroke="#5682d8" stroke-width="2" stroke-dasharray="5,2" d="M478,-252C478,-252 431,-252 431,-252 425,-252 419,-246 419,-240 419,-240 419,-228 419,-228 419,-222 425,-216 431,-216 431,-216 478,-216 478,-216 484,-216 490,-222 490,-228 490,-228 490,-240 490,-240 490,-246 484,-252 478,-252"/>
<text text-anchor="middle" x="454.5" y="-231.5" font-family="sans" font-size="10.00">create_dict</text>
</g>
<!-- 13&#45;&gt;1 -->
<g id="edge8" class="edge">
<title>13&#45;&gt;1</title>
<path fill="none" stroke="grey" stroke-width="2" d="M418.58,-218.8C415.86,-217.82 413.14,-216.88 410.5,-216 363.36,-200.36 308.65,-185.43 270.07,-175.42"/>
<polygon fill="grey" stroke="grey" stroke-width="2" points="270.69,-171.97 260.14,-172.86 268.95,-178.75 270.69,-171.97"/>
</g>
<!-- 14&#45;&gt;0 -->
<g id="edge2" class="edge">
<title>14&#45;&gt;0</title>
<path fill="none" stroke="grey" stroke-width="2" d="M246.1,-71.7C242.23,-63.73 237.55,-54.1 233.26,-45.26"/>
<polygon fill="grey" stroke="grey" stroke-width="2" points="236.33,-43.57 228.81,-36.1 230.03,-46.63 236.33,-43.57"/>
</g>
</g>
</svg>
